# xmcd
#
# Track frame offsets: 
#        182
#        14757
#        28920
#        57185
#        73295
#        102057
#        129147
#        145677
#        174860
#        185415
#        201545
#        229795
#        251230
#        263297
#
# Disc length: 3776 seconds
#
# Revision: 13
# Processed by: cddbd v1.5.2PL0 Copyright (c) Steve Scherf et al.
# Submitted via: ExactAudioCopy v1.0b3
#
DISCID=c40ebe0e
DTITLE=Cesaria Evora - Cabo Verde
DYEAR=1997
DGENRE=Morna
TTITLE0=Tchintchirote
TTITLE1=Sabine Larga'm
TTITLE2=Partida
TTITLE3=Sangue De Beirona
TTITLE4=Apocalipse
TTITLE5=Mar E Morada De Sodade
TTITLE6=Bo E Di Meu Cretcheu
TTITLE7=Coragem Irmon
TTITLE8=Quem Bo E
TTITLE9=Regresso
TTITLE10=Zebra
TTITLE11=Mae Velha
TTITLE12=Pe Di Boi
TTITLE13=Ess Pais
EXTD=YEAR: 1997
EXTT0=
EXTT1=
EXTT2=
EXTT3=
EXTT4=
EXTT5=
EXTT6=
EXTT7=
EXTT8=
EXTT9=
EXTT10=
EXTT11=
EXTT12=
EXTT13=
PLAYORDER=
